<?xml version="1.0" standalone="no"?>
<!DOCTYPE svg PUBLIC "-//W3C//DTD SVG 20010904//EN"
 "http://www.w3.org/TR/2001/REC-SVG-20010904/DTD/svg10.dtd">
<svg version="1.0" xmlns="http://www.w3.org/2000/svg"
 width="799.000000pt" height="799.000000pt" viewBox="0 0 799.000000 799.000000"
 preserveAspectRatio="xMidYMid meet">
<metadata>
Created by potrace 1.11, written by Peter Selinger 2001-2013
</metadata>
<g transform="translate(0.000000,799.000000) scale(0.100000,-0.100000)"
fill="#000000" stroke="none">
<path d="M2325 7923 c-165 -83 -312 -167 -445 -256 -97 -64 -288 -202 -300
-216 -3 -3 -27 -24 -55 -46 -72 -57 -125 -105 -263 -240 -248 -240 -462 -507
-641 -800 -65 -106 -145 -245 -146 -255 -1 -3 -15 -32 -32 -65 -43 -83 -130
-279 -155 -345 -73 -200 -155 -463 -172 -550 -2 -14 -10 -47 -16 -75 -7 -27
-14 -66 -17 -85 -2 -19 -8 -51 -13 -70 -5 -19 -12 -62 -16 -95 -3 -33 -8 -62
-9 -65 -2 -3 -6 -37 -10 -75 -4 -39 -9 -81 -11 -95 -22 -176 -22 -632 0 -820
3 -19 7 -60 11 -91 3 -31 7 -65 9 -75 2 -11 7 -41 10 -69 4 -27 9 -57 11 -65
2 -8 6 -32 9 -52 3 -21 11 -59 17 -85 6 -27 13 -59 15 -73 24 -124 130 -474
175 -575 4 -11 22 -56 40 -100 46 -120 178 -385 259 -520 66 -111 225 -354
239 -365 3 -3 26 -32 50 -65 24 -33 49 -64 55 -70 6 -5 22 -23 34 -39 75 -98
336 -369 457 -476 125 -111 347 -279 490 -372 173 -111 433 -252 585 -317 314
-134 607 -227 875 -276 148 -28 228 -40 320 -51 33 -3 69 -8 80 -10 45 -9 270
-18 425 -17 237 0 442 16 645 48 57 9 90 15 115 20 14 3 39 8 55 10 17 3 37 8
45 10 8 2 27 6 41 9 56 9 300 77 404 112 435 145 914 400 1240 659 198 157
486 431 620 589 244 288 458 621 617 959 l18 38 -23 -7 c-12 -4 -45 -17 -73
-30 -160 -73 -528 -192 -705 -228 -147 -30 -243 -48 -284 -52 -27 -3 -52 -7
-55 -9 -3 -2 -44 -7 -90 -10 -47 -4 -88 -9 -92 -12 -10 -5 -273 -17 -398 -17
-113 0 -372 11 -405 18 -11 2 -51 7 -90 11 -38 4 -77 8 -85 10 -8 2 -35 6 -60
9 -216 30 -561 118 -790 203 -288 106 -626 273 -814 402 -24 17 -49 31 -54 31
-6 0 -12 4 -14 8 -1 5 -32 28 -68 52 -250 169 -608 493 -800 725 -41 50 -77
92 -80 95 -15 14 -156 208 -218 300 -359 536 -594 1176 -667 1815 -3 28 -8 61
-10 75 -23 140 -23 644 -1 820 2 14 7 56 10 93 4 37 9 76 11 85 6 35 16 98 20
134 7 55 62 299 91 403 30 108 109 348 128 390 32 69 87 208 84 210 -2 2 -62
-26 -133 -62z"/>
</g>
</svg>
