<?xml version="1.0" standalone="no"?>
<!DOCTYPE svg PUBLIC "-//W3C//DTD SVG 20010904//EN"
 "http://www.w3.org/TR/2001/REC-SVG-20010904/DTD/svg10.dtd">
<svg version="1.0" xmlns="http://www.w3.org/2000/svg"
 width="799.000000pt" height="799.000000pt" viewBox="0 0 799.000000 799.000000"
 preserveAspectRatio="xMidYMid meet">
<metadata>
Created by potrace 1.11, written by Peter Selinger 2001-2013
</metadata>
<g transform="translate(0.000000,799.000000) scale(0.100000,-0.100000)"
fill="#000000" stroke="none">
<path d="M2322 7920 c-206 -102 -409 -225 -607 -369 -49 -36 -95 -70 -101 -76
-7 -5 -31 -26 -55 -45 -164 -132 -395 -354 -520 -500 -35 -41 -66 -77 -69 -80
-56 -55 -294 -390 -363 -510 -77 -134 -126 -225 -170 -315 -27 -55 -52 -107
-57 -116 -48 -91 -186 -469 -215 -589 -2 -8 -13 -49 -24 -90 -11 -41 -22 -86
-25 -100 -3 -14 -16 -79 -30 -145 -14 -66 -27 -141 -30 -167 -7 -53 -15 -111
-21 -148 -2 -14 -7 -65 -10 -115 -4 -49 -9 -106 -11 -125 -5 -39 -5 -427 1
-505 5 -92 16 -210 20 -225 2 -8 7 -44 10 -80 4 -36 8 -67 10 -70 2 -3 6 -29
10 -59 4 -30 9 -63 11 -75 3 -12 7 -34 10 -51 3 -16 10 -48 16 -70 5 -22 11
-47 13 -55 23 -117 123 -448 164 -545 10 -22 31 -74 47 -115 30 -78 168 -360
228 -467 33 -60 188 -304 207 -327 5 -6 48 -63 95 -126 275 -366 623 -695
1004 -947 80 -53 157 -104 172 -115 15 -10 29 -18 31 -18 3 0 48 -25 102 -55
190 -108 420 -211 645 -290 74 -25 142 -48 150 -50 8 -2 42 -11 75 -21 33 -10
62 -18 65 -19 3 -1 66 -15 140 -32 247 -57 396 -80 650 -99 178 -14 660 -6
730 11 8 2 44 7 80 10 36 3 72 8 80 10 8 2 35 7 60 10 102 14 355 70 495 110
305 89 629 223 872 361 123 70 218 129 221 136 2 4 8 8 13 8 5 0 46 26 91 57
505 347 918 784 1228 1299 121 201 253 465 218 437 -23 -19 -338 -140 -463
-178 -222 -68 -420 -114 -600 -140 -22 -3 -51 -8 -65 -10 -50 -9 -207 -25
-310 -32 -192 -13 -631 -5 -684 12 -6 2 -42 6 -81 9 -38 4 -80 8 -91 10 -21 4
-57 10 -131 22 -282 44 -675 164 -983 300 -242 107 -614 325 -785 461 -42 33
-47 37 -71 53 -109 76 -404 351 -549 512 -414 459 -728 1026 -906 1637 -17 58
-33 114 -35 124 -2 9 -6 25 -8 35 -61 266 -97 509 -112 757 -6 104 -6 382 1
470 6 89 16 206 20 240 3 17 9 66 15 111 6 44 13 91 15 105 3 13 8 40 11 59
19 125 93 409 148 575 31 92 125 335 136 350 8 12 21 45 16 45 -1 0 -66 -32
-144 -70z"/>
</g>
</svg>
