<?xml version="1.0" encoding="utf-8"?>
<!-- Generator: Adobe Illustrator 24.2.0, SVG Export Plug-In . SVG Version: 6.00 Build 0)  -->
<svg version="1.1" id="Layer_1" xmlns="http://www.w3.org/2000/svg" xmlns:xlink="http://www.w3.org/1999/xlink" x="0px" y="0px"
	 viewBox="0 0 500 500" style="enable-background:new 0 0 500 500;" xml:space="preserve">
<style type="text/css">
	.st0{display:none;fill:#5D76F5;stroke:#291DAD;stroke-miterlimit:10;}
	.st1{fill:#5D76F5;stroke:#291DAD;stroke-miterlimit:10;}
	.st2{fill:#291DAD;stroke:#FFFFFF;stroke-width:8;stroke-miterlimit:10;}
	.st3{display:none;fill:none;stroke:#291DAD;stroke-width:6;stroke-miterlimit:10;}
	.st4{display:none;}
	.st5{display:inline;}
	.st6{fill:none;stroke:#291DAD;stroke-miterlimit:10;}
</style>
<circle class="st0" cx="238.1" cy="264" r="217.2"/>
<circle class="st1" cx="249.1" cy="250.8" r="136"/>
<path class="st2" d="M458.5,330.8c-27.7,12.6-58.2,19.7-90.5,19.7c-121.6,0-220.2-98.8-220.2-220.2c0-32.3,7.1-63.1,19.7-90.8
	C90.5,73.7,37.2,150.7,37.2,240.2c0,121.6,98.8,220.2,220.2,220.2C347.1,460.5,423.7,407.2,458.5,330.8z"/>
<polygon class="st1" points="202.4,46.1 199.4,104.1 235,94.2 "/>
<line class="st3" x1="391.4" y1="270.1" x2="483.8" y2="270.1"/>
<line class="st3" x1="226.9" y1="108.7" x2="226.9" y2="16.3"/>
<line class="st3" x1="345.8" y1="148.4" x2="411" y2="83.1"/>
<polygon class="st1" points="351.5,64.9 310,105.5 342.9,122.3 "/>
<polygon class="st1" points="447.5,168.4 389.4,169.6 401.9,204.4 "/>
<polygon class="st1" points="450.5,308 403.5,273.9 392.5,309.2 "/>
<path class="st0" d="M505,109"/>
<g class="st4">
	<g class="st5">
		<circle class="st6" cx="238.1" cy="264" r="244.5"/>
		<circle class="st6" cx="238.1" cy="264" r="203.8"/>
		<circle class="st6" cx="238.1" cy="264" r="163"/>
		<circle class="st6" cx="238.1" cy="264" r="122.2"/>
		<circle class="st6" cx="238.1" cy="264" r="81.5"/>
		<circle class="st6" cx="238.1" cy="264" r="40.8"/>
	</g>
	<g class="st5">
		<line class="st6" x1="238.1" y1="264" x2="238.1" y2="508.5"/>
		<line class="st6" x1="238.1" y1="264" x2="470.7" y2="339.6"/>
		<line class="st6" x1="238.1" y1="264" x2="381.8" y2="66.2"/>
		<line class="st6" x1="238.1" y1="264" x2="94.4" y2="66.2"/>
		<line class="st6" x1="238.1" y1="264" x2="5.6" y2="339.6"/>
	</g>
</g>
</svg>
